<?xml version="1.0" encoding="UTF-8" standalone="no"?>
<svg width="34px" height="29px" viewBox="0 0 34 29" version="1.1" xmlns="http://www.w3.org/2000/svg" xmlns:xlink="http://www.w3.org/1999/xlink" xmlns:sketch="http://www.bohemiancoding.com/sketch/ns">
    <!-- Generator: sketchtool 3.4.3 (385) - http://www.bohemiancoding.com/sketch -->
    <title>Shape Copy</title>
    <desc>Created with sketchtool.</desc>
    <defs></defs>
    <g id="Page-1" stroke="none" stroke-width="1" fill="none" fill-rule="evenodd" sketch:type="MSPage">
        <g id="Artboard-1-Copy-87" sketch:type="MSArtboardGroup" transform="translate(-28.000000, -461.000000)" fill="#6B7684">
            <path d="M59.4003941,461 L29.8407153,461 C28.8256068,461 28,461.825607 28,462.841085 L28,482.219018 C28,483.233388 28.8256068,484.058625 29.8407153,484.058625 L41.2691821,484.058625 L39.8078396,488.735217 L38.538954,488.735217 C38.2482369,488.735217 38.012191,488.971632 38.012191,489.261611 C38.012191,489.552697 38.2482369,489.789482 38.538954,489.789482 L50.7006778,489.789482 C50.9921336,489.789482 51.228549,489.552697 51.228549,489.261611 C51.228549,488.971632 50.9921336,488.735217 50.7006778,488.735217 L49.432531,488.735217 L47.9711885,484.058625 L59.3996553,484.058625 C60.4143944,484.058625 61.2400012,483.233388 61.2400012,482.219018 L61.2400012,462.841085 C61.24074,461.825607 60.4151332,461 59.4003941,461 L59.4003941,461 Z M48.3295055,488.735217 L40.9119733,488.735217 L42.3733158,484.058625 L46.8670548,484.058625 L48.3295055,488.735217 L48.3295055,488.735217 Z M60.1868446,482.219018 C60.1868446,482.652323 59.8340685,483.004361 59.4003941,483.004361 L29.8407153,483.004361 C29.4066715,483.004361 29.0538954,482.652323 29.0538954,482.219018 L29.0538954,462.841085 C29.0538954,462.407041 29.4070409,462.053895 29.8407153,462.053895 L59.4003941,462.053895 C59.8340685,462.053895 60.1868446,462.407041 60.1868446,462.841085 L60.1868446,482.219018 L60.1868446,482.219018 Z M58.2124068,463.501201 L31.0283331,463.501201 C30.7376161,463.501201 30.5012007,463.737247 30.5012007,464.028333 L30.5012007,481.030662 C30.5012007,481.321748 30.7376161,481.558164 31.0283331,481.558164 L58.2124068,481.558164 C58.5038627,481.558164 58.7391698,481.321748 58.7391698,481.030662 L58.7391698,464.028333 C58.7391698,463.737247 58.5038627,463.501201 58.2124068,463.501201 L58.2124068,463.501201 Z M57.6856438,480.50316 L31.5554655,480.50316 L31.5554655,464.555466 L57.6856438,464.555466 L57.6856438,480.50316 L57.6856438,480.50316 Z M36.5641468,475.245873 C37.3720225,475.245873 38.0291833,474.588712 38.0291833,473.780837 C38.0291833,473.501202 37.9464379,473.242992 37.8104991,473.020244 L41.296887,469.830484 C41.4590532,469.892173 41.6334095,469.930591 41.8170008,469.930591 C41.9946818,469.930591 42.1623889,469.89439 42.3193835,469.836024 L46.4245148,475.768942 C46.262718,476.00388 46.1674131,476.288317 46.1674131,476.594918 C46.1674131,477.402794 46.8249433,478.060324 47.632819,478.060324 C48.441064,478.060324 49.0974861,477.402794 49.0974861,476.594918 C49.0974861,476.487793 49.0845571,476.38473 49.0623932,476.283515 L51.9854476,473.74205 C51.993205,473.735401 51.9991154,473.727274 52.0068727,473.719886 C52.2085646,473.824795 52.4346368,473.890179 52.677332,473.890179 C53.485577,473.890179 54.1423685,473.233018 54.1423685,472.425142 C54.1423685,471.617267 53.4859464,470.959736 52.677332,470.959736 C51.8694563,470.959736 51.2122955,471.617267 51.2122955,472.425142 C51.2122955,472.605778 51.2499742,472.776071 51.3094474,472.935652 C51.3042758,472.939715 51.2983654,472.94267 51.2939326,472.946734 L48.4739405,475.398435 C48.2353088,475.229989 47.9460693,475.129143 47.632819,475.129143 C47.5164583,475.129143 47.4037916,475.146135 47.2948189,475.171993 L43.1139608,469.132319 C43.2177619,468.930997 43.2820374,468.706772 43.2820374,468.465554 C43.2820374,467.657678 42.6248765,467.000518 41.8170008,467.000518 C41.0091252,467.000518 40.3519643,467.657678 40.3519643,468.465554 C40.3519643,468.7016 40.4132846,468.921393 40.5130223,469.11939 L36.9542322,472.375273 C36.8290059,472.34018 36.7000857,472.3158 36.5637774,472.3158 C35.7562712,472.3158 35.0991103,472.972961 35.0991103,473.780837 C35.0991103,474.588712 35.7566406,475.245873 36.5641468,475.245873 L36.5641468,475.245873 Z M52.677332,472.014001 C52.9037736,472.014001 53.0884731,472.198701 53.0884731,472.425512 C53.0884731,472.652323 52.9037736,472.836283 52.677332,472.836283 C52.4512598,472.836283 52.2669297,472.651953 52.2669297,472.425512 C52.2665603,472.198701 52.4508904,472.014001 52.677332,472.014001 L52.677332,472.014001 Z M48.0435907,476.594918 C48.0435907,476.820991 47.85963,477.00569 47.632819,477.00569 C47.4063774,477.00569 47.2220473,476.820991 47.2220473,476.594918 C47.2220473,476.368477 47.4063774,476.183777 47.632819,476.183777 C47.85963,476.183777 48.0435907,476.368477 48.0435907,476.594918 L48.0435907,476.594918 Z M41.8170008,468.054413 C42.0438118,468.054413 42.2277726,468.239113 42.2277726,468.465554 C42.2277726,468.692365 42.0434424,468.876326 41.8170008,468.876326 C41.5905592,468.876326 41.4062291,468.691996 41.4062291,468.465554 C41.4062291,468.239113 41.5905592,468.054413 41.8170008,468.054413 L41.8170008,468.054413 Z M36.5641468,473.369695 C36.7909578,473.369695 36.9749185,473.554026 36.9749185,473.780837 C36.9749185,474.007278 36.7905884,474.191239 36.5641468,474.191239 C36.3377052,474.191239 36.1533751,474.007278 36.1533751,473.780837 C36.1530057,473.554026 36.3373358,473.369695 36.5641468,473.369695 L36.5641468,473.369695 Z" id="Shape-Copy" sketch:type="MSShapeGroup"></path>
        </g>
    </g>
</svg>